<svg xmlns="http://www.w3.org/2000/svg"
     viewBox="0 0 24 24"
     fill="none"
     stroke="currentColor"
     stroke-width="2"
     stroke-linecap="round"
     stroke-linejoin="round">

    <path d="M22 16.92v3a2 2 0 0 1-2.18 2
             19.79 19.79 0 0 1-8.63-3.07
             19.5 19.5 0 0 1-6-6
             19.79 19.79 0 0 1-3.07-8.67
             A2 2 0 0 1 4.11 2h3
             a2 2 0 0 1 2 1.72
             c.12.89.33 1.76.63 2.6
             a2 2 0 0 1-.45 2.11L8.1 9.91
             a16 16 0 0 0 6 6l1.48-1.19
             a2 2 0 0 1 2.11-.45
             c.84.3 1.71.51 2.6.63
             A2 2 0 0 1 22 16.92z"/>

</svg>