<svg xmlns="http://www.w3.org/2000/svg"
     viewBox="0 0 32 32">

    <path
        fill="#25D366"
        d="M16 3C8.8 3 3 8.7 3 15.8
        c0 2.5.7 4.9 2.1 7L3 29l6.4-2
        c2 1.1 4.3 1.7 6.6 1.7
        7.2 0 13-5.7 13-12.9
        S23.2 3 16 3z"/>

    <path
        fill="#fff"
        d="M21.2 18.7
        c-.3-.1-1.7-.8-2-.9
        -.3-.1-.5-.1-.7.1
        -.2.3-.8.9-.9 1
        -.2.2-.3.2-.6.1
        -1.8-.9-3-1.6-4.2-3.7
        -.3-.5.3-.5.9-1.8
        .1-.2.1-.4 0-.6
        -.1-.1-.7-1.6-1-2.2
        -.3-.6-.5-.5-.7-.5
        -.2 0-.5 0-.7 0
        -.2 0-.6.1-.9.5
        -.3.3-1.1 1.1-1.1 2.7
        0 1.6 1.2 3.2 1.4 3.4
        .2.2 2.4 3.8 5.9 5.1
        .8.4 1.5.6 2 .8
        .8.3 1.5.2 2.1.1
        .6-.1 1.7-.7 1.9-1.5
        .2-.7.2-1.3.1-1.5
        -.1-.1-.3-.2-.6-.3z"/>

</svg>