<?xml version="1.0" encoding="UTF-8"?>
<svg
    xmlns="http://www.w3.org/2000/svg"
    viewBox="0 0 512 512">

    <defs>

        <linearGradient id="bg"
                        x1="0%"
                        y1="0%"
                        x2="100%"
                        y2="100%">

            <stop offset="0%"
                  stop-color="#2E5E4E"/>

            <stop offset="100%"
                  stop-color="#23473B"/>

        </linearGradient>

        <linearGradient id="gold"
                        x1="0%"
                        y1="0%"
                        x2="0%"
                        y2="100%">

            <stop offset="0%"
                  stop-color="#E8D9B2"/>

            <stop offset="100%"
                  stop-color="#C8A25A"/>

        </linearGradient>

    </defs>

    <rect
        width="512"
        height="512"
        rx="110"
        fill="url(#bg)" />

    <g fill="url(#gold)">

        <path d="
        M256 140
        C220 180 220 240 256 285
        C292 240 292 180 256 140
        Z"/>

        <path d="
        M180 200
        C150 230 150 280 205 315
        C225 280 220 230 180 200
        Z"/>

        <path d="
        M332 200
        C292 230 287 280 307 315
        C362 280 362 230 332 200
        Z"/>

        <path d="
        M220 295
        C225 330 240 355 256 372
        C272 355 287 330 292 295
        Z"/>

    </g>

    <circle
        cx="256"
        cy="258"
        r="11"
        fill="#FFFFFF"/>

</svg>