<?xml version="1.0" encoding="UTF-8"?>
<svg
    xmlns="http://www.w3.org/2000/svg"
    width="400"
    height="400"
    viewBox="0 0 400 400">

    <g
        fill="none"
        stroke="#2E5E4E"
        stroke-opacity=".06"
        stroke-width="2">

        <path d="M90 80
                 C70 110 72 150 95 175
                 C118 150 120 110 90 80"/>

        <path d="M260 60
                 C235 95 240 140 265 170
                 C290 140 288 95 260 60"/>

        <path d="M310 240
                 C285 275 290 320 315 350
                 C340 320 338 275 310 240"/>

        <path d="M120 260
                 C95 290 95 330 120 360
                 C145 330 145 290 120 260"/>

        <path d="M200 170
                 C175 205 178 245 202 272
                 C225 245 227 205 200 170"/>

    </g>

</svg>